<svg xmlns="http://www.w3.org/2000/svg" id="Layer_1" data-name="Layer 1" viewBox="0 0 225.58 195.49">
  <defs>
    <style>
      .cls-1 {
        fill: #fb7185;
      }

      .cls-1, .cls-2, .cls-3 {
        stroke-width: 0px;
      }

      .cls-2 {
        fill: #c95b6b;
      }

      .cls-3 {
        fill: #fff;
      }
    </style>
  </defs>
  <path class="cls-2" d="M166.52,195.49l-136.48-.12c-19.59,0-34.47-15.05-28.84-35.18.06-.23.12-.47.17-.7L28,30.99C31.62,13.51,46.88.99,64.56.99h130.92c10.44-1.84,33.2,17.91,29.74,37.29l-24.05,129.43c-3.28,17.45-17.06,27.77-34.65,27.77Z"/>
  <path class="cls-1" d="M163.04,191.73H31.63c-19.21,0-37.62-4.97-29.63-36.84L28.04,29.25C31.57,12.21,46.44,0,63.68,0h127.66c19.35,0,33.92,17.78,30.32,36.97l-23.55,125.42c-3.2,17.02-17.92,29.33-35.07,29.33Z"/>
  <g id="Logo">
    <path class="cls-3" d="M28.06,183.88c-5.84,0-10.82-1.7-14.94-5.1-4.12-3.4-6.17-7.45-6.17-12.17,0-3.68,1.91-7.07,3.01-8.02,2.23-1.92,4.19-1.99,6.25-2.05.96-.03,2.24.42,3.34,1.26,1.1.84,1.64,2.26,1.64,4.26,0,1.52-.55,2.88-1.64,4.08-1.1,1.2-2.41,1.8-3.93,1.8-.86,0-1.71-.06-2.54-.18-.83-.12-1.58-.46-2.24-1.02v.72c0,3.92,1.63,7.12,4.88,9.59,3.25,2.48,7.63,3.72,13.14,3.72,3.32,0,6.59-.58,9.81-1.74,3.22-1.16,6.82-3.4,10.8-6.71,3.98-3.32,8.76-8.15,14.34-14.51s12.35-14.63,20.31-24.82c7.97-10.19,17.56-22.8,28.78-37.83,12.68-17.5,24.66-31.73,35.95-42.68,11.29-10.95,21.41-19.3,30.37-25.06-3.65-4.48-8.75-7.89-15.29-10.25-6.54-2.36-14.06-3.54-22.55-3.54-4.65,0-9.61.58-14.89,1.74-5.28,1.16-10.24,2.78-14.89,4.86-7.97,3.52-15.78,8.31-23.45,14.39-7.67,6.08-14.59,12.71-20.76,19.9-6.17,7.19-11.09,14.35-14.74,21.46-3.65,7.12-5.48,13.51-5.48,19.18,0,4.8,1.33,8.31,3.98,10.55,2.65,2.24,5.88,3.36,9.66,3.36,5.64,0,11.9-2,18.77-5.99,6.87-4,13.53-9.51,19.97-16.55,6.44-7.03,11.96-15.17,16.58-24.4,4.61-9.23,7.52-19.08,8.71-29.55.26-1.6.46-2.64.6-3.12.13-.48.4-.72.8-.72.73,0,1.1.88,1.1,2.64,0,11.59-2.03,22.28-6.07,32.07-4.05,9.79-9.39,18.28-16.03,25.48-6.64,7.19-13.93,12.79-21.86,16.79-7.93,4-15.78,5.99-23.55,5.99-3.98,0-7.59-1.34-10.8-4.02-3.22-2.68-4.83-6.97-4.83-12.89,0-7.75,1.81-15.61,5.43-23.56,3.62-7.95,8.61-15.53,14.99-22.72,6.37-7.19,13.74-13.61,22.11-19.24s17.31-10.09,26.84-13.37c9.53-3.28,19.2-4.92,29.03-4.92,17.92,0,31.73,4.48,41.42,13.43,5.24-3.04,9.96-5.23,14.14-6.59,4.18-1.36,7.77-2.04,10.75-2.04,2.19,0,3.29.4,3.29,1.2,0,.48-1.05.9-3.14,1.26-2.09.36-5.06,1.14-8.91,2.34-3.85,1.2-8.36,3.4-13.54,6.59,6.24,7.12,9.36,15.99,9.36,26.62,0,7.12-1.83,14.09-5.48,20.92-3.65,6.83-8.48,13.05-14.49,18.64-6.01,5.6-12.5,10.11-19.47,13.55,5.31,5.68,7.97,13.71,7.97,24.1,0,6.79-1.58,13.35-4.73,19.66-3.15,6.32-7.4,11.97-12.75,16.96-5.34,5-11.37,8.95-18.07,11.87-6.71,2.92-13.64,4.38-20.81,4.38-6.37,0-10.72-1.48-13.04-4.44-2.32-2.96-3.49-5.91-3.49-8.87,0-4.15,1.49-8.71,4.48-13.67,2.99-4.96,6.97-9.67,11.95-14.15,4.98-4.48,10.52-8.15,16.63-11.03,6.11-2.88,12.28-4.32,18.52-4.32,1.39,0,2.09.48,2.09,1.44,0,1.12-1.03,1.68-3.09,1.68-5.18,0-10.54,1.3-16.08,3.9-5.54,2.6-10.67,5.93-15.38,10.01-4.71,4.08-8.53,8.43-11.45,13.07-2.92,4.64-4.38,9.03-4.38,13.19,0,2.4.93,4.64,2.79,6.71,1.86,2.08,5.48,3.12,10.85,3.12,4.71,0,9.69-1.64,14.94-4.92,5.24-3.28,10.16-7.83,14.74-13.67,4.58-5.83,8.31-12.61,11.2-20.32,2.89-7.71,4.33-16.05,4.33-25,0-3.2-.5-5.75-1.49-7.67-3.25,1.28-6.54,2.3-9.86,3.06-3.32.76-6.57,1.14-9.76,1.14s-5.38-.6-6.97-1.8c-1.59-1.2-2.39-2.44-2.39-3.72,0-1.92,1.66-3.68,4.98-5.28,3.32-1.6,7.1-2.4,11.35-2.4,4.51,0,8.56,1.08,12.15,3.24,5.58-3.28,10.95-7.71,16.13-13.31,5.18-5.59,9.43-12.17,12.75-19.72,3.32-7.55,4.98-15.81,4.98-24.76,0-5.59-1.39-10.55-4.18-14.87-1.46,1.04-2.97,2.2-4.53,3.48-1.56,1.28-3.17,2.64-4.83,4.08-5.51,4.96-10.95,10.51-16.33,16.67-5.38,6.16-10.99,13.35-16.83,21.58-5.84,8.23-12.22,17.95-19.12,29.14-12.48,20.14-24.58,36.25-36.3,48.32-11.72,12.07-22.89,20.74-33.51,26.02-3.65,1.76-7.29,2.88-10.9,3.36-3.62.48-7.29.72-11,.72ZM132.72,109.31c4.78,0,10.09-1.48,15.93-4.44-2.13-1.44-5.11-2.16-8.96-2.16-3.12,0-5.79.42-8.02,1.26-2.23.84-3.34,1.74-3.34,2.7,0,.56.41,1.14,1.24,1.74.83.6,1.88.9,3.14.9Z"/>
  </g>
</svg>