<?xml version="1.0" encoding="UTF-8"?>
<svg id="Layer_1" data-name="Layer 1" xmlns="http://www.w3.org/2000/svg" viewBox="0 0 803.46 195.49">
  <defs>
    <style>
      .cls-1 {
        fill: #fb7185;
      }

      .cls-1, .cls-2, .cls-3, .cls-4 {
        stroke-width: 0px;
      }

      .cls-2 {
        fill: #c95b6b;
      }

      .cls-3 {
        fill: #fff;
      }

      .cls-4 {
        fill: #fff;
      }
    </style>
  </defs>
  <path class="cls-2" d="M166.52,195.49l-136.48-.12c-19.59,0-34.47-15.05-28.84-35.18.06-.23.12-.47.17-.7L28,30.99C31.62,13.51,46.88.99,64.56.99h130.92c10.44-1.84,33.2,17.91,29.74,37.29l-24.05,129.43c-3.28,17.45-17.06,27.77-34.65,27.77Z"/>
  <path class="cls-1" d="M163.04,191.73H31.63c-19.21,0-37.62-4.97-29.63-36.84L28.04,29.25C31.57,12.21,46.44,0,63.68,0h127.66c19.35,0,33.92,17.78,30.32,36.97l-23.55,125.42c-3.2,17.02-17.92,29.33-35.07,29.33Z"/>
  <g id="Logo">
    <path class="cls-3" d="M28.06,183.88c-5.84,0-10.82-1.7-14.94-5.1-4.12-3.4-6.17-7.45-6.17-12.17,0-3.68,1.91-7.07,3.01-8.02,2.23-1.92,4.19-1.99,6.25-2.05.96-.03,2.24.42,3.34,1.26,1.1.84,1.64,2.26,1.64,4.26,0,1.52-.55,2.88-1.64,4.08-1.1,1.2-2.41,1.8-3.93,1.8-.86,0-1.71-.06-2.54-.18-.83-.12-1.58-.46-2.24-1.02v.72c0,3.92,1.63,7.12,4.88,9.59,3.25,2.48,7.63,3.72,13.14,3.72,3.32,0,6.59-.58,9.81-1.74,3.22-1.16,6.82-3.4,10.8-6.71,3.98-3.32,8.76-8.15,14.34-14.51s12.35-14.63,20.31-24.82c7.97-10.19,17.56-22.8,28.78-37.83,12.68-17.5,24.66-31.73,35.95-42.68,11.29-10.95,21.41-19.3,30.37-25.06-3.65-4.48-8.75-7.89-15.29-10.25-6.54-2.36-14.06-3.54-22.55-3.54-4.65,0-9.61.58-14.89,1.74-5.28,1.16-10.24,2.78-14.89,4.86-7.97,3.52-15.78,8.31-23.45,14.39-7.67,6.08-14.59,12.71-20.76,19.9-6.17,7.19-11.09,14.35-14.74,21.46-3.65,7.12-5.48,13.51-5.48,19.18,0,4.8,1.33,8.31,3.98,10.55,2.65,2.24,5.88,3.36,9.66,3.36,5.64,0,11.9-2,18.77-5.99,6.87-4,13.53-9.51,19.97-16.55,6.44-7.03,11.96-15.17,16.58-24.4,4.61-9.23,7.52-19.08,8.71-29.55.26-1.6.46-2.64.6-3.12.13-.48.4-.72.8-.72.73,0,1.1.88,1.1,2.64,0,11.59-2.03,22.28-6.07,32.07-4.05,9.79-9.39,18.28-16.03,25.48-6.64,7.19-13.93,12.79-21.86,16.79-7.93,4-15.78,5.99-23.55,5.99-3.98,0-7.59-1.34-10.8-4.02-3.22-2.68-4.83-6.97-4.83-12.89,0-7.75,1.81-15.61,5.43-23.56,3.62-7.95,8.61-15.53,14.99-22.72,6.37-7.19,13.74-13.61,22.11-19.24s17.31-10.09,26.84-13.37c9.53-3.28,19.2-4.92,29.03-4.92,17.92,0,31.73,4.48,41.42,13.43,5.24-3.04,9.96-5.23,14.14-6.59,4.18-1.36,7.77-2.04,10.75-2.04,2.19,0,3.29.4,3.29,1.2,0,.48-1.05.9-3.14,1.26-2.09.36-5.06,1.14-8.91,2.34-3.85,1.2-8.36,3.4-13.54,6.59,6.24,7.12,9.36,15.99,9.36,26.62,0,7.12-1.83,14.09-5.48,20.92-3.65,6.83-8.48,13.05-14.49,18.64-6.01,5.6-12.5,10.11-19.47,13.55,5.31,5.68,7.97,13.71,7.97,24.1,0,6.79-1.58,13.35-4.73,19.66-3.15,6.32-7.4,11.97-12.75,16.96-5.34,5-11.37,8.95-18.07,11.87-6.71,2.92-13.64,4.38-20.81,4.38-6.37,0-10.72-1.48-13.04-4.44-2.32-2.96-3.49-5.91-3.49-8.87,0-4.15,1.49-8.71,4.48-13.67,2.99-4.96,6.97-9.67,11.95-14.15,4.98-4.48,10.52-8.15,16.63-11.03,6.11-2.88,12.28-4.32,18.52-4.32,1.39,0,2.09.48,2.09,1.44,0,1.12-1.03,1.68-3.09,1.68-5.18,0-10.54,1.3-16.08,3.9-5.54,2.6-10.67,5.93-15.38,10.01-4.71,4.08-8.53,8.43-11.45,13.07-2.92,4.64-4.38,9.03-4.38,13.19,0,2.4.93,4.64,2.79,6.71,1.86,2.08,5.48,3.12,10.85,3.12,4.71,0,9.69-1.64,14.94-4.92,5.24-3.28,10.16-7.83,14.74-13.67,4.58-5.83,8.31-12.61,11.2-20.32,2.89-7.71,4.33-16.05,4.33-25,0-3.2-.5-5.75-1.49-7.67-3.25,1.28-6.54,2.3-9.86,3.06-3.32.76-6.57,1.14-9.76,1.14s-5.38-.6-6.97-1.8c-1.59-1.2-2.39-2.44-2.39-3.72,0-1.92,1.66-3.68,4.98-5.28,3.32-1.6,7.1-2.4,11.35-2.4,4.51,0,8.56,1.08,12.15,3.24,5.58-3.28,10.95-7.71,16.13-13.31,5.18-5.59,9.43-12.17,12.75-19.72,3.32-7.55,4.98-15.81,4.98-24.76,0-5.59-1.39-10.55-4.18-14.87-1.46,1.04-2.97,2.2-4.53,3.48-1.56,1.28-3.17,2.64-4.83,4.08-5.51,4.96-10.95,10.51-16.33,16.67-5.38,6.16-10.99,13.35-16.83,21.58-5.84,8.23-12.22,17.95-19.12,29.14-12.48,20.14-24.58,36.25-36.3,48.32-11.72,12.07-22.89,20.74-33.51,26.02-3.65,1.76-7.29,2.88-10.9,3.36-3.62.48-7.29.72-11,.72ZM132.72,109.31c4.78,0,10.09-1.48,15.93-4.44-2.13-1.44-5.11-2.16-8.96-2.16-3.12,0-5.79.42-8.02,1.26-2.23.84-3.34,1.74-3.34,2.7,0,.56.41,1.14,1.24,1.74.83.6,1.88.9,3.14.9Z"/>
  </g>
  <g id="Font">
    <path class="cls-4" d="M355.66,156.64c-15.45.01-30.68-9.42-34.29-24.19-6.21-24.27,16.14-48.39,41.07-49.42,19.76-1.7,36.47,12.77,32.99,32.51-.43,2.25-.78,3.74-1.37,5.89,0,.01,0,.02-.01.04-.24.85-1.01,1.43-1.89,1.44-5.63.07-27.66.35-38.66.51-5.76.05-6.32.05-10.05.07-2.52.02-3.88.1-7.08.14-2.54.03-2.49-.31-2.41,1.23.61,8.95,7.46,17.22,16.6,19.12,6.94,1.37,11.91,1.15,18.73-.08.6-.11,2.94-.9,5.12-1.67s4.48.69,4.74,2.98c.2,1.76.42,3.72.58,5.22s-.73,2.91-2.14,3.43c-1.76.65-3.69,1.27-6.97,2.06-.19.05-.24.47-8.57.74h-6.4ZM335.31,112.99c.83-.02.82-.02,1.3-.01,3.93.02,7,.05,10.47,0,10.79-.13,23.3-.11,34.36-.16,4.82-.03-.17-9.66-1.75-11.18-7.27-9.65-23.46-9.28-33.19-2.85-5.24,3.38-9.47,8.21-11.65,13.54-.18.48-.36.71-.03.67h.48Z"/>
    <path class="cls-4" d="M394.81,152.59l17.71-96.75c.32-1.73,1.83-2.99,3.59-2.99h5.71c2.28,0,4,2.07,3.59,4.31l-17.71,96.75c-.32,1.73-1.83,2.99-3.59,2.99h-5.71c-2.28,0-4-2.07-3.59-4.31Z"/>
    <path class="cls-4" d="M419.82,152.59l17.71-96.75c.32-1.73,1.83-2.99,3.59-2.99h5.71c2.28,0,4,2.06,3.59,4.31l-17.71,96.75c-.32,1.73-1.83,2.99-3.59,2.99h-5.71c-2.28,0-4-2.06-3.59-4.31Z"/>
    <path class="cls-4" d="M477.67,156.9c-5.59,0-10.76-1.44-15.5-4.32-4.74-2.88-8.55-6.81-11.43-11.79-2.87-4.97-4.31-10.57-4.32-16.79,0-5.82,1.35-11.59,3.86-16.83,2.22-4.63,5.15-8.78,8.78-12.45,3.89-3.93,8.33-7.03,13.31-9.3,4.99-2.27,10.19-3.4,15.62-3.4s10.56,1.18,15.14,3.53c4.43,2.28,9.08,6.2,12.1,10.13.12.15.35.09.39-.09l1.78-9.6c.32-1.73,1.83-2.98,3.59-2.98h4.35c2.27,0,3.99,2.06,3.59,4.29l-12,66.62c-.31,1.74-1.82,3-3.59,3h-4.73c-2.28,0-4-2.06-3.59-4.3l1.07-5.86c.04-.21-.2-.34-.36-.2-3.37,3.07-9.44,5.9-13.38,7.76-4.13,1.95-10.05,2.61-14.67,2.61ZM481.32,144.99c4.86,0,9.42-1.36,13.68-4.07,4.25-2.71,7.72-6.26,10.39-10.64,2.67-4.38,4.01-9.04,4.01-13.98,0-4.05-.91-7.76-2.74-11.12-1.82-3.36-4.34-6.08-7.54-8.15-3.2-2.07-6.95-3.1-11.25-3.1-4.86,0-9.42,1.36-13.68,4.07-4.25,2.72-7.72,6.24-10.39,10.58-2.67,4.34-4.01,9.02-4.01,14.04,0,3.97.91,7.66,2.74,11.06,1.82,3.4,4.36,6.14,7.6,8.21,3.24,2.07,6.97,3.1,11.18,3.1Z"/>
    <path class="cls-4" d="M674.55,156.9c-5.59,0-10.76-1.44-15.5-4.32-4.74-2.88-8.55-6.81-11.43-11.79-2.88-4.98-4.32-10.6-4.32-16.84,0-5.79,1.34-11.53,3.84-16.75,2.22-4.64,5.16-8.81,8.8-12.49,3.89-3.93,8.33-7.03,13.31-9.3,4.99-2.27,10.19-3.4,15.62-3.4s10.56,1.18,15.14,3.53c4.58,2.35,9.39,6.47,12.39,10.52l1.83-9.85c.35-1.86,1.97-3.22,3.87-3.22h3.77c2.45,0,4.31,2.22,3.87,4.63l-11.9,66.05c-.34,1.87-1.97,3.24-3.87,3.24h-4.15c-2.46,0-4.31-2.23-3.87-4.64l1.13-6.19c-3.24,3.24-9.73,6.27-13.86,8.22s-10.05,2.61-14.67,2.61ZM678.19,144.99c4.86,0,9.42-1.36,13.68-4.07,4.25-2.71,7.72-6.26,10.39-10.64,2.67-4.38,4.01-9.04,4.01-13.98,0-4.05-.91-7.76-2.74-11.12-1.82-3.36-4.34-6.08-7.54-8.15-3.2-2.07-6.95-3.1-11.25-3.1-4.86,0-9.42,1.36-13.68,4.07-4.25,2.72-7.72,6.24-10.39,10.58-2.67,4.34-4.01,9.02-4.01,14.04,0,3.97.91,7.66,2.74,11.06,1.82,3.4,4.36,6.14,7.6,8.21,3.24,2.07,6.97,3.1,11.18,3.1Z"/>
    <path class="cls-4" d="M557.14,153.01l19.31-101.93c.34-1.77,1.88-3.05,3.68-3.05h5.56c2.32,0,4.08,2.08,3.69,4.37l-5.3,31.37h45.64l6.12-32.69c.33-1.77,1.88-3.06,3.68-3.06h5.73c2.34,0,4.11,2.12,3.68,4.42l-18.74,101.86c-.33,1.81-1.93,3.11-3.76,3.07l-6.24-.13c-2.32-.05-4.03-2.17-3.6-4.45l10.8-56.62h-45.75l-10.91,58.22c-.33,1.77-1.88,3.06-3.68,3.06h-6.23c-2.35,0-4.12-2.14-3.68-4.44Z"/>
    <path class="cls-4" d="M727.36,152.49l11.85-66.45c.32-1.78,1.87-3.08,3.68-3.08h5.36c2.33,0,4.09,2.12,3.67,4.42l-12.27,66.45c-.33,1.77-1.88,3.06-3.68,3.06h-4.94c-2.32-.02-4.08-2.12-3.67-4.4Z"/>
    <path class="cls-4" d="M753.25,151.56l11.9-64.9c.39-2.15,2.26-3.71,4.45-3.71h2.84c2.82,0,4.96,2.56,4.45,5.34l-1.7,9.29c3.65-4.3,6.68-6.81,12.19-8.37,6.95-1.98,11.14-2.03,13.59-1.84,1.41.11,2.5,1.3,2.5,2.71v3.58c0,1.29-1.13,2.32-2.4,2.15-.87-.12-1.81-.18-2.83-.18-6.65,0-12.54,2.25-17.69,6.75-5.15,4.5-7.64,11.33-9.99,20.48l-5.64,30.35c-.4,2.14-2.27,3.69-4.44,3.69h-2.76c-2.82,0-4.96-2.56-4.45-5.34Z"/>
    <circle class="cls-4" cx="748.98" cy="67.42" r="7.62"/>
    <path class="cls-4" d="M238.12,146.43c4.56-25.02,13.56-72.44,17.24-91.07.9-4.55,4.89-7.82,9.52-7.81,4.88.01,10.57.1,15.2.03,3.5.02,5.95-.13,9.41.34,13.97,1.74,22.54,14.67,18.53,28.52-.53,2.17-1.06,3.88-1.63,5.59-.69,1.92-.63,2.24-1.88,3.8-4.34,5.45-6.19,4.99-9.22,7-.14.09,2.02.19,2.34.24,15.44.43,18,18.31,17.06,29.48-1.14,13.47-9.51,26.29-22.06,31.51-2.82,1.17-5.83,1.85-8.87,2.16-7.34.75-14.32.59-21.56.64l-15.36.02c-5.54,0-9.73-5-8.73-10.45ZM252.08,144.2c4.2.25,11.2,0,15.99.11,6.61-.1,15.66.43,21.39-2.64,8.79-4.83,13.93-14.27,13.39-24.33-.08-5.81-1.29-11.12-5.54-14.7-4.06-3.86-10.37-4.24-15.68-4.24-4.72.01-15.57,0-19.36,0-1.24.08-1.92-.3-2.13.76-.77,4.04-6.45,34.56-8.3,44.59-.02.19,0,.34.2.43l.06.02ZM262.66,86.61c2.5.03,9.97.04,13.23.14,6.12.24,11.84-.84,16.08-5.49,5.56-5.36,5.54-16.26-1.99-19.91-4.7-2.36-3.28-1.59-15.5-1.55-2.42,0-4.62.01-5.71.01-1.36,0-1.17-.13-1.42,1.06-.56,2.78-2.53,13.1-3.81,19.73q-.43,2.98-.92,5.97l.05.03Z"/>
  </g>
</svg>