<svg id="visual" viewBox="0 0 900 600" width="900" height="600" xmlns="http://www.w3.org/2000/svg" xmlns:xlink="http://www.w3.org/1999/xlink" version="1.1"><rect x="0" y="0" width="900" height="600" fill="#fb7185"></rect><defs><linearGradient id="grad1_0" x1="33.3%" y1="0%" x2="100%" y2="100%"><stop offset="20%" stop-color="#e85369" stop-opacity="1"></stop><stop offset="80%" stop-color="#e85369" stop-opacity="1"></stop></linearGradient></defs><defs><linearGradient id="grad1_1" x1="33.3%" y1="0%" x2="100%" y2="100%"><stop offset="20%" stop-color="#e85369" stop-opacity="1"></stop><stop offset="80%" stop-color="#f26277" stop-opacity="1"></stop></linearGradient></defs><defs><linearGradient id="grad1_2" x1="33.3%" y1="0%" x2="100%" y2="100%"><stop offset="20%" stop-color="#fb7185" stop-opacity="1"></stop><stop offset="80%" stop-color="#f26277" stop-opacity="1"></stop></linearGradient></defs><defs><linearGradient id="grad2_0" x1="0%" y1="0%" x2="66.7%" y2="100%"><stop offset="20%" stop-color="#e85369" stop-opacity="1"></stop><stop offset="80%" stop-color="#e85369" stop-opacity="1"></stop></linearGradient></defs><defs><linearGradient id="grad2_1" x1="0%" y1="0%" x2="66.7%" y2="100%"><stop offset="20%" stop-color="#f26277" stop-opacity="1"></stop><stop offset="80%" stop-color="#e85369" stop-opacity="1"></stop></linearGradient></defs><defs><linearGradient id="grad2_2" x1="0%" y1="0%" x2="66.7%" y2="100%"><stop offset="20%" stop-color="#f26277" stop-opacity="1"></stop><stop offset="80%" stop-color="#fb7185" stop-opacity="1"></stop></linearGradient></defs><g transform="translate(900, 0)"><path d="M0 405.6C-74.7 397.2 -149.4 388.7 -202.8 351.3C-256.2 313.8 -288.4 247.4 -318.7 184C-349 120.6 -377.3 60.3 -405.6 0L0 0Z" fill="#f66a7e"></path><path d="M0 270.4C-49.8 264.8 -99.6 259.2 -135.2 234.2C-170.8 209.2 -192.3 164.9 -212.5 122.7C-232.6 80.4 -251.5 40.2 -270.4 0L0 0Z" fill="#ed5b70"></path><path d="M0 135.2C-24.9 132.4 -49.8 129.6 -67.6 117.1C-85.4 104.6 -96.1 82.5 -106.2 61.3C-116.3 40.2 -125.8 20.1 -135.2 0L0 0Z" fill="#e85369"></path></g><g transform="translate(0, 600)"><path d="M0 -405.6C80.9 -400.8 161.8 -395.9 202.8 -351.3C243.8 -306.6 244.8 -222.2 271.9 -157C299.1 -91.8 352.3 -45.9 405.6 0L0 0Z" fill="#f66a7e"></path><path d="M0 -270.4C53.9 -267.2 107.9 -264 135.2 -234.2C162.5 -204.4 163.2 -148.1 181.3 -104.7C199.4 -61.2 234.9 -30.6 270.4 0L0 0Z" fill="#ed5b70"></path><path d="M0 -135.2C27 -133.6 53.9 -132 67.6 -117.1C81.3 -102.2 81.6 -74.1 90.6 -52.3C99.7 -30.6 117.4 -15.3 135.2 0L0 0Z" fill="#e85369"></path></g></svg>