<svg xmlns="http://www.w3.org/2000/svg" viewBox="0 0 1345.4222222222222 756.8"><rect width="1345.4222222222222" height="756.8" fill="#ffdee3" id="bg" class="bg"/><g><g transform="translate(500.80,&#10;                                201.81) rotate(180, 22.4237037037037, 22.4237037037037)"><svg xmlns="http://www.w3.org/2000/svg" id="Layer_1" data-name="Layer 1" viewBox="0 0 100 100" width="44.8474074074074" height="44.8474074074074"><path d="M50,100h0A50,50,0,0,1,0,50V0H100V50A50,50,0,0,1,50,100Z" fill="#FFCCD8"/></svg></g><g transform="translate(799.78,&#10;                                201.81) rotate(90, 22.4237037037037, 22.4237037037037)"><svg xmlns="http://www.w3.org/2000/svg" id="Layer_1" data-name="Layer 1" viewBox="0 0 100 100" width="44.8474074074074" height="44.8474074074074"><circle cx="50" cy="50" r="50" fill="#FFC9E0"/></svg></g><g transform="translate(799.78,&#10;                                351.30) rotate(180, 22.4237037037037, 22.4237037037037)"><svg xmlns="http://www.w3.org/2000/svg" id="Layer_1" data-name="Layer 1" viewBox="0 0 100 100" width="44.8474074074074" height="44.8474074074074"><path d="M100,100A50,50,0,0,0,0,100Z" fill="#FFC7D3"/></svg></g><g transform="translate(1098.76,&#10;                                52.32) rotate(270, 22.4237037037037, 22.4237037037037)"><svg xmlns="http://www.w3.org/2000/svg" id="Layer_1" data-name="Layer 1" viewBox="0 0 100 100" width="44.8474074074074" height="44.8474074074074"><path d="M100,100A50,50,0,0,0,0,100Z" fill="#FFC7D3"/></svg></g><g transform="translate(1248.25,&#10;                                52.32) rotate(270, 22.4237037037037, 22.4237037037037)"><svg xmlns="http://www.w3.org/2000/svg" id="Layer_1" data-name="Layer 1" viewBox="0 0 100 100" width="44.8474074074074" height="44.8474074074074"><circle cx="50" cy="50" r="50" fill="#FFC9E0"/></svg></g></g><g><g transform="translate(201.81,&#10;                                650.29) rotate(0, 22.4237037037037, 22.4237037037037)"><svg xmlns="http://www.w3.org/2000/svg" id="Layer_1" data-name="Layer 1" viewBox="0 0 100 100" width="44.8474074074074" height="44.8474074074074"><path d="M50,100h0A50,50,0,0,1,0,50V0H100V50A50,50,0,0,1,50,100Z" fill="#FFCCD8"/></svg></g><g transform="translate(351.30,&#10;                                650.29) rotate(0, 22.4237037037037, 22.4237037037037)"><svg xmlns="http://www.w3.org/2000/svg" id="Layer_1" data-name="Layer 1" viewBox="0 0 100 100" width="44.8474074074074" height="44.8474074074074"><path d="M50,100h0A50,50,0,0,1,0,50V0H100V50A50,50,0,0,1,50,100Z" fill="#FFCCD8"/></svg></g><g transform="translate(650.29,&#10;                                500.80) rotate(180, 22.4237037037037, 22.4237037037037)"><svg xmlns="http://www.w3.org/2000/svg" id="Layer_1" data-name="Layer 1" viewBox="0 0 100 100" width="44.8474074074074" height="44.8474074074074"><path d="M50,100a50,50,0,1,1,50-50v50Z" fill="#FFD1D8"/></svg></g><g transform="translate(949.27,&#10;                                500.80) rotate(90, 22.4237037037037, 22.4237037037037)"><svg xmlns="http://www.w3.org/2000/svg" id="Layer_1" data-name="Layer 1" viewBox="0 0 100 100" width="44.8474074074074" height="44.8474074074074"><path d="M50,100h0A50,50,0,0,1,0,50V0H100V50A50,50,0,0,1,50,100Z" fill="#FFCCD8"/></svg></g><g transform="translate(949.27,&#10;                                650.29) rotate(270, 22.4237037037037, 22.4237037037037)"><svg xmlns="http://www.w3.org/2000/svg" id="Layer_1" data-name="Layer 1" viewBox="0 0 100 100" width="44.8474074074074" height="44.8474074074074"><path d="M50,100h0A50,50,0,0,1,0,50V0H100V50A50,50,0,0,1,50,100Z" fill="#FFCCD8"/></svg></g><g transform="translate(1248.25,&#10;                                650.29) rotate(90, 22.4237037037037, 22.4237037037037)"><svg xmlns="http://www.w3.org/2000/svg" id="Layer_1" data-name="Layer 1" viewBox="0 0 100 100" width="44.8474074074074" height="44.8474074074074"><path d="M50,100h0A50,50,0,0,1,0,50V0H100V50A50,50,0,0,1,50,100Z" fill="#FFCCD8"/></svg></g><g transform="translate(1098.76,&#10;                                799.78) rotate(0, 22.4237037037037, 22.4237037037037)"><svg xmlns="http://www.w3.org/2000/svg" id="Layer_1" data-name="Layer 1" viewBox="0 0 100 100" width="44.8474074074074" height="44.8474074074074"><path d="M100,100A50,50,0,0,0,0,100Z" fill="#FFC7D3"/></svg></g></g></svg>