<?xml version="1.0" encoding="utf-8"?>
<!-- Generator: Adobe Illustrator 28.1.0, SVG Export Plug-In . SVG Version: 6.00 Build 0)  -->
<svg version="1.1" id="Camada_1" xmlns="http://www.w3.org/2000/svg" xmlns:xlink="http://www.w3.org/1999/xlink" x="0px" y="0px"
	 viewBox="0 0 1200 120" style="enable-background:new 0 0 1200 120;" xml:space="preserve">
<style type="text/css">
	.st0{opacity:0.25;fill:#FB7185;enable-background:new    ;}
	.st1{opacity:0.5;fill:#FB7185;enable-background:new    ;}
	.st2{fill:#FB7185;}
</style>
<path class="st0" d="M1200.1,120V73.7c-47.8-22.2-103.6-32.2-158-28C971.7,51.1,905.7,79,835.2,83.2C761.4,87.6,687.7,66.3,617,47.9
	c-69.3-18-138.3-24.9-209.4-13.1c-36.2,6-69.9,17.8-104.5,29.3C210.4,95,86.9,134.3-0.1,67.5V120H1200.1z"/>
<path class="st1" d="M1200.1,120v-15.8c-13-21.1-27.6-41.1-47.7-56.3c-51.7-39.2-117.3-39-176.9-19.5
	c-31.2,10.2-60.1,26.1-89.7,39.8c-40.9,19-84.7,46-130.9,49.7c-36.3,2.9-70.9-9.4-98.6-31.6c-31.8-25.4-62.3-62-103.7-73
	C512.2,2.5,471.3,20,433.5,37.6s-75.2,39-116.9,43.1c-59.7,5.9-113.3-22.9-168.9-38.8c-30.2-8.7-59-6.2-87.1,7.5
	c-22.4,10.9-48,26.9-60.7,49.2V120H1200.1z"/>
<path class="st2" d="M1200.1,120v-5.6C1050.2,61,886,48.7,724.2,77.4c-43,7.6-84.2,20.1-127.6,26.5c-59,8.6-112.5-12.2-165.6-35.4
	C372,42.8,313.9,24.7,248.7,30C162.2,37,76.2,75.7-0.1,114.8v5.2H1200.1z"/>
</svg>
